<svg width="119" height="37" viewBox="0 0 119 37" fill="none" xmlns="http://www.w3.org/2000/svg">
<path fill-rule="evenodd" clip-rule="evenodd" d="M29.3291 -3.8147e-05H36.7917V32.9869H29.3291V-3.8147e-05ZM7.46273 23.1801C7.77743 25.8101 10.2949 27.5485 13.2171 27.5485C15.5996 27.5485 16.8584 26.5233 17.7575 25.2304H25.4C24.1862 27.9943 22.4329 30.134 20.32 31.5604C18.2521 33.0315 15.7794 33.7892 13.2171 33.7892C6.06906 33.7892 0 28.0388 0 20.6837C0 13.7743 5.48469 7.39967 13.0821 7.39967C16.9034 7.39967 20.1852 8.87067 22.5229 11.3226C25.6698 14.6658 26.6137 18.6331 26.0293 23.1801H7.46273ZM18.7016 17.5633C18.5218 16.4042 16.9933 13.6404 13.1271 13.6404C9.26087 13.6404 7.73247 16.4042 7.55257 17.5633H18.7016ZM47.5276 -3.8147e-05H40.0649V32.9869H47.5276V19.2572C47.5276 18.633 47.5276 17.4295 48.0671 16.3597C48.5617 15.2898 49.6404 14.3536 51.7085 14.3536C53.327 14.3536 54.316 14.9779 54.9452 15.9139C55.5298 16.8501 55.7094 18.1427 55.7094 19.5246V32.9869H63.1723V19.1682C63.1723 16.0029 62.8125 13.061 61.4639 10.9213C60.1152 8.73707 57.8676 7.39967 54.0463 7.39967C51.3936 7.39967 48.8762 8.29125 47.5276 10.52V7.39967V-3.8147e-05Z" fill="#323D41"/>
<path fill-rule="evenodd" clip-rule="evenodd" d="M65.5508 21.2904C65.5508 15.2736 69.9085 8.18703 78.9827 8.18703C88.0572 8.18703 92.4149 15.2736 92.4149 21.3352C92.4149 27.3965 88.0572 34.4831 78.9827 34.4831C69.9085 34.4831 65.5508 27.3965 65.5508 21.3352V21.2904ZM73.0079 21.3797C73.0079 24.9453 75.7483 27.5749 78.9827 27.5749C82.2173 27.5749 84.9575 24.9453 84.9575 21.3352C84.9575 17.7249 82.2173 15.0953 78.9827 15.0953C75.7483 15.0953 73.0079 17.7249 73.0079 21.3352V21.3797Z" fill="#D22254"/>
<mask id="path-3-outside-1" maskUnits="userSpaceOnUse" x="88.0508" y="6.63204" width="31" height="31" fill="black">
<rect fill="white" x="88.0508" y="6.63204" width="31" height="31"/>
<path fill-rule="evenodd" clip-rule="evenodd" d="M103.357 35.2311C94.3473 35.2311 89.4858 28.2325 89.4858 21.6474V21.6026C89.4858 15.0393 94.3473 8.06354 103.357 8.06354C112.367 8.06354 117.229 15.0623 117.229 21.6474C117.229 28.2325 112.367 35.2311 103.357 35.2311ZM103.357 15.8372C100.25 15.8372 97.8154 18.3892 97.8154 21.6474V21.692C97.8154 24.9249 100.25 27.4573 103.357 27.4573C106.465 27.4573 108.899 24.9054 108.899 21.6474C108.899 18.3892 106.465 15.8372 103.357 15.8372ZM103.357 8.49513C112.435 8.49513 116.794 15.5839 116.794 21.6474C116.794 27.7106 112.435 34.7994 103.357 34.7994C94.28 34.7994 89.9208 27.7106 89.9208 21.6474V21.6026C89.9208 15.5839 94.28 8.49513 103.357 8.49513ZM103.357 27.889C106.593 27.889 109.334 25.2586 109.334 21.6474C109.334 18.036 106.593 15.4056 103.357 15.4056C100.122 15.4056 97.3804 18.036 97.3804 21.6474V21.692C97.3804 25.2586 100.122 27.889 103.357 27.889ZM103.357 7.63204C94.0648 7.63204 89.0508 14.83 89.0508 21.6026V21.6474C89.0508 28.4416 94.0648 35.6626 103.357 35.6626C112.65 35.6626 117.664 28.4416 117.664 21.6474C117.664 14.853 112.65 7.63204 103.357 7.63204ZM103.357 27.0259C100.494 27.0259 98.2505 24.6829 98.2505 21.692V21.6474C98.2505 18.6313 100.494 16.2687 103.357 16.2687C106.221 16.2687 108.464 18.6313 108.464 21.6474C108.464 24.6633 106.221 27.0259 103.357 27.0259Z"/>
</mask>
<path fill-rule="evenodd" clip-rule="evenodd" d="M103.357 35.2311C94.3473 35.2311 89.4858 28.2325 89.4858 21.6474V21.6026C89.4858 15.0393 94.3473 8.06354 103.357 8.06354C112.367 8.06354 117.229 15.0623 117.229 21.6474C117.229 28.2325 112.367 35.2311 103.357 35.2311ZM103.357 15.8372C100.25 15.8372 97.8154 18.3892 97.8154 21.6474V21.692C97.8154 24.9249 100.25 27.4573 103.357 27.4573C106.465 27.4573 108.899 24.9054 108.899 21.6474C108.899 18.3892 106.465 15.8372 103.357 15.8372ZM103.357 8.49513C112.435 8.49513 116.794 15.5839 116.794 21.6474C116.794 27.7106 112.435 34.7994 103.357 34.7994C94.28 34.7994 89.9208 27.7106 89.9208 21.6474V21.6026C89.9208 15.5839 94.28 8.49513 103.357 8.49513ZM103.357 27.889C106.593 27.889 109.334 25.2586 109.334 21.6474C109.334 18.036 106.593 15.4056 103.357 15.4056C100.122 15.4056 97.3804 18.036 97.3804 21.6474V21.692C97.3804 25.2586 100.122 27.889 103.357 27.889ZM103.357 7.63204C94.0648 7.63204 89.0508 14.83 89.0508 21.6026V21.6474C89.0508 28.4416 94.0648 35.6626 103.357 35.6626C112.65 35.6626 117.664 28.4416 117.664 21.6474C117.664 14.853 112.65 7.63204 103.357 7.63204ZM103.357 27.0259C100.494 27.0259 98.2505 24.6829 98.2505 21.692V21.6474C98.2505 18.6313 100.494 16.2687 103.357 16.2687C106.221 16.2687 108.464 18.6313 108.464 21.6474C108.464 24.6633 106.221 27.0259 103.357 27.0259Z" fill="#323D41"/>
<path d="M103.357 34.2311C94.9861 34.2311 90.4858 27.7709 90.4858 21.6474H88.4858C88.4858 28.6941 93.7085 36.2311 103.357 36.2311V34.2311ZM90.4858 21.6474V21.6026H88.4858V21.6474H90.4858ZM90.4858 21.6026C90.4858 15.5041 94.9832 9.06354 103.357 9.06354V7.06354C93.7115 7.06354 88.4858 14.5745 88.4858 21.6026H90.4858ZM103.357 9.06354C111.728 9.06354 116.229 15.5239 116.229 21.6474H118.229C118.229 14.6007 113.006 7.06354 103.357 7.06354V9.06354ZM116.229 21.6474C116.229 27.7709 111.728 34.2311 103.357 34.2311V36.2311C113.006 36.2311 118.229 28.6941 118.229 21.6474H116.229ZM103.357 14.8372C99.6532 14.8372 96.8154 17.8821 96.8154 21.6474H98.8154C98.8154 18.8964 100.846 16.8372 103.357 16.8372V14.8372ZM96.8154 21.6474V21.692H98.8154V21.6474H96.8154ZM96.8154 21.692C96.8154 25.4396 99.6604 28.4573 103.357 28.4573V26.4573C100.839 26.4573 98.8154 24.4103 98.8154 21.692H96.8154ZM103.357 28.4573C107.061 28.4573 109.899 25.4127 109.899 21.6474H107.899C107.899 24.3982 105.869 26.4573 103.357 26.4573V28.4573ZM109.899 21.6474C109.899 17.882 107.061 14.8372 103.357 14.8372V16.8372C105.869 16.8372 107.899 18.8964 107.899 21.6474H109.899ZM103.357 9.49513C111.765 9.49513 115.794 16.0113 115.794 21.6474H117.794C117.794 15.1565 113.104 7.49513 103.357 7.49513V9.49513ZM115.794 21.6474C115.794 27.2832 111.765 33.7994 103.357 33.7994V35.7994C113.104 35.7994 117.794 28.1381 117.794 21.6474H115.794ZM103.357 33.7994C94.9494 33.7994 90.9208 27.2832 90.9208 21.6474H88.9208C88.9208 28.1381 93.6106 35.7994 103.357 35.7994V33.7994ZM90.9208 21.6474V21.6026H88.9208V21.6474H90.9208ZM90.9208 21.6026C90.9208 16.0135 94.9474 9.49513 103.357 9.49513V7.49513C93.6125 7.49513 88.9208 15.1543 88.9208 21.6026H90.9208ZM103.357 28.889C107.162 28.889 110.334 25.7943 110.334 21.6474H108.334C108.334 24.723 106.024 26.889 103.357 26.889V28.889ZM110.334 21.6474C110.334 17.5003 107.162 14.4056 103.357 14.4056V16.4056C106.024 16.4056 108.334 18.5716 108.334 21.6474H110.334ZM103.357 14.4056C99.553 14.4056 96.3804 17.5003 96.3804 21.6474H98.3804C98.3804 18.5717 100.69 16.4056 103.357 16.4056V14.4056ZM96.3804 21.6474V21.692H98.3804V21.6474H96.3804ZM96.3804 21.692C96.3804 25.7991 99.5577 28.889 103.357 28.889V26.889C100.686 26.889 98.3804 24.7181 98.3804 21.692H96.3804ZM103.357 6.63204C93.4285 6.63204 88.0508 14.3657 88.0508 21.6026H90.0508C90.0508 15.2944 94.7011 8.63204 103.357 8.63204V6.63204ZM88.0508 21.6026V21.6474H90.0508V21.6026H88.0508ZM88.0508 21.6474C88.0508 28.9029 93.4257 36.6626 103.357 36.6626V34.6626C94.704 34.6626 90.0508 27.9804 90.0508 21.6474H88.0508ZM103.357 36.6626C113.289 36.6626 118.664 28.9029 118.664 21.6474H116.664C116.664 27.9804 112.01 34.6626 103.357 34.6626V36.6626ZM118.664 21.6474C118.664 14.3918 113.289 6.63204 103.357 6.63204V8.63204C112.01 8.63204 116.664 15.3142 116.664 21.6474H118.664ZM103.357 26.0259C101.086 26.0259 99.2505 24.1721 99.2505 21.692H97.2505C97.2505 25.1937 99.9006 28.0259 103.357 28.0259V26.0259ZM99.2505 21.692V21.6474H97.2505V21.692H99.2505ZM99.2505 21.6474C99.2505 19.134 101.094 17.2687 103.357 17.2687V15.2687C99.893 15.2687 97.2505 18.1285 97.2505 21.6474H99.2505ZM103.357 17.2687C105.62 17.2687 107.464 19.1341 107.464 21.6474H109.464C109.464 18.1285 106.821 15.2687 103.357 15.2687V17.2687ZM107.464 21.6474C107.464 24.1605 105.62 26.0259 103.357 26.0259V28.0259C106.821 28.0259 109.464 25.1661 109.464 21.6474H107.464Z" fill="white" mask="url(#path-3-outside-1)"/>
</svg>
